<svg xmlns="http://www.w3.org/2000/svg" version="1.1" xmlns:xlink="http://www.w3.org/1999/xlink" xmlns:svgjs="http://svgjs.dev/svgjs" width="1000" height="1000" viewBox="0 0 1000 1000"><g transform="matrix(1,0,0,1,-0.14221556886212738,-0.14221556886229791)"><svg viewBox="0 0 334 334" data-background-color="#ffffff" preserveAspectRatio="xMidYMid meet" height="1000" width="1000" xmlns="http://www.w3.org/2000/svg" xmlns:xlink="http://www.w3.org/1999/xlink"><g id="tight-bounds" transform="matrix(1,0,0,1,0.04749999999998522,0.04750000000001364)"><svg viewBox="0 0 333.90454557049503 333.90454557049503" height="333.90454557049503" width="333.90454557049503"><g><svg></svg></g><g><svg viewBox="0 0 333.90454557049503 333.90454557049503" height="333.90454557049503" width="333.90454557049503"><g><path d="M0 166.952c0-92.205 74.747-166.952 166.952-166.952 92.205 0 166.952 74.747 166.953 166.952 0 92.205-74.747 166.952-166.953 166.953-92.205 0-166.952-74.747-166.952-166.953zM166.952 316.63c82.665 0 149.677-67.013 149.678-149.678 0-82.665-67.013-149.677-149.678-149.677-82.665 0-149.677 67.013-149.677 149.677 0 82.665 67.013 149.677 149.677 149.678z" data-fill-palette-color="tertiary" fill="#ed1703" stroke="transparent"></path><ellipse rx="160.27418187383762" ry="160.27418187383762" cx="166.95227278524752" cy="166.95227278524752" fill="#ed1703" stroke="transparent" stroke-width="0" fill-opacity="1" data-fill-palette-color="tertiary"></ellipse></g><g transform="matrix(1,0,0,1,101.25582146297602,71.17305217166896)"><svg viewBox="0 0 131.392902644543 191.55844122715712" height="191.55844122715712" width="131.392902644543"><g><svg viewBox="0 0 131.392902644543 191.55844122715712" height="191.55844122715712" width="131.392902644543"><g><svg viewBox="0 0 131.392902644543 191.55844122715712" height="191.55844122715712" width="131.392902644543"><g><svg viewBox="0 0 131.392902644543 191.55844122715712" height="191.55844122715712" width="131.392902644543"><g><svg viewBox="0 0 131.392902644543 191.55844122715712" height="191.55844122715712" width="131.392902644543" id="textblock"><g><svg viewBox="0 0 131.392902644543 191.55844122715712" height="191.55844122715712" width="131.392902644543"><g transform="matrix(1,0,0,1,0,0)"><svg width="131.392902644543" viewBox="3 -35.5 24.350000381469727 35.5" height="191.55844122715712" data-palette-color="#ffffff"><path d="M3 0L3-34.65Q5.1-35.05 7.63-35.27 10.15-35.5 12.65-35.5L12.65-35.5Q15.25-35.5 17.88-35.08 20.5-34.65 22.6-33.38 24.7-32.1 26.03-29.83 27.35-27.55 27.35-23.9L27.35-23.9Q27.35-20.6 26.2-18.32 25.05-16.05 23.15-14.6 21.25-13.15 18.82-12.5 16.4-11.85 13.8-11.85L13.8-11.85Q13.55-11.85 13-11.85 12.45-11.85 11.85-11.88 11.25-11.9 10.68-11.95 10.1-12 9.85-12.05L9.85-12.05 9.85 0 3 0ZM13.2-29.6L13.2-29.6Q12.2-29.6 11.3-29.53 10.4-29.45 9.85-29.35L9.85-29.35 9.85-18Q10.05-17.95 10.45-17.9 10.85-17.85 11.3-17.82 11.75-17.8 12.18-17.8 12.6-17.8 12.8-17.8L12.8-17.8Q14.15-17.8 15.48-18.05 16.8-18.3 17.85-18.98 18.9-19.65 19.53-20.85 20.15-22.05 20.15-24L20.15-24Q20.15-25.65 19.55-26.73 18.95-27.8 17.98-28.45 17-29.1 15.75-29.35 14.5-29.6 13.2-29.6Z" opacity="1" transform="matrix(1,0,0,1,0,0)" fill="#ffffff" class="undefined-text-0" data-fill-palette-color="quaternary" id="text-0"></path></svg></g></svg></g></svg></g></svg></g><g></g></svg></g></svg></g></svg></g></svg></g><defs></defs></svg><rect width="333.90454557049503" height="333.90454557049503" fill="none" stroke="none" visibility="hidden"></rect></g></svg></g></svg>